<?xml version="1.0" encoding="UTF-8" standalone="no"?>
<!-- Created with Inkscape (http://www.inkscape.org/) -->

<svg
   xmlns:dc="http://purl.org/dc/elements/1.1/"
   xmlns:cc="http://creativecommons.org/ns#"
   xmlns:rdf="http://www.w3.org/1999/02/22-rdf-syntax-ns#"
   xmlns:svg="http://www.w3.org/2000/svg"
   xmlns="http://www.w3.org/2000/svg"
   xmlns:sodipodi="http://sodipodi.sourceforge.net/DTD/sodipodi-0.dtd"
   xmlns:inkscape="http://www.inkscape.org/namespaces/inkscape"
   version="1.1"
   id="svg2"
   width="238.66667"
   height="237.33333"
   viewBox="0 0 238.66667 237.33333"
   sodipodi:docname="skywater-logo.svg"
   inkscape:version="0.92.3 (2405546, 2018-03-11)">
  <metadata
     id="metadata8">
    <rdf:RDF>
      <cc:Work
         rdf:about="">
        <dc:format>image/svg+xml</dc:format>
        <dc:type
           rdf:resource="http://purl.org/dc/dcmitype/StillImage" />
        <dc:title></dc:title>
      </cc:Work>
    </rdf:RDF>
  </metadata>
  <defs
     id="defs6" />
  <sodipodi:namedview
     pagecolor="#ffffff"
     bordercolor="#666666"
     borderopacity="1"
     objecttolerance="10"
     gridtolerance="10"
     guidetolerance="10"
     inkscape:pageopacity="0"
     inkscape:pageshadow="2"
     inkscape:window-width="959"
     inkscape:window-height="2118"
     id="namedview4"
     showgrid="false"
     inkscape:zoom="0.087891786"
     inkscape:cx="119.33334"
     inkscape:cy="118.66666"
     inkscape:window-x="2160"
     inkscape:window-y="855"
     inkscape:window-maximized="0"
     inkscape:current-layer="svg2" />
  <path
     style="fill:#000000;stroke-width:1.33333337"
     d="m 79.515153,233.81818 c -10.398012,-10.39801 -1.026031,-20.48485 19.033084,-20.48485 13.749853,0 18.786173,-5.69432 12.709493,-14.36999 C 109.19007,196.01133 109.02665,196 68.548237,196 23.64819,196 20.560743,195.53032 16.726934,188.11654 12.307763,179.57081 18.234706,171.92025 30.032256,170.94192 38.255198,170.26 41.333334,167.56205 41.333334,161.03665 41.333334,153.71657 37.64135,152 21.897436,152 1.5173528,152 -6.8549096,142.64978 3.8974359,131.89743 L 7.7948718,128 H 39.333334 70.871796 l 3.897436,3.89743 c 8.06573,8.06574 3.303816,18.20746 -9.499371,20.23138 C 54.868782,153.773 50.947659,161.61432 57.333334,168 c 4.369459,4.36945 66.841766,4.1044 69.924396,-0.29668 5.90129,-8.42527 1.58288,-14.44072 -11.20849,-15.61319 -15.26813,-1.39948 -21.157925,-11.18657 -12.1518,-20.1927 L 107.79487,128 l 61.10257,0.0297 c 66.7225,0.0324 64.28892,-0.24225 68.3686,7.71522 C 243.14903,147.2197 234.8633,152 209.09086,152 c -23.9393,0 -26.42419,0.86537 -26.42419,9.20229 0,7.7812 2.49915,9.14064 17.78368,9.67364 18.86164,0.65772 26.13211,10.31495 15.46457,20.54128 l -4.08506,3.91612 L 170.53088,196 c -45.2102,0.7298 -43.8025,0.44748 -43.84379,8.79334 -0.0329,6.65558 3.03514,8.22571 17.08989,8.746 18.23202,0.67494 26.0361,10.18604 16.32558,19.89655 l -3.89742,3.89744 H 119.61772 83.030304 Z M 166.81676,167.8499 c 2.99007,-2.99006 2.89592,-10.67056 -0.16834,-13.73482 -2.7005,-2.7005 -19.93128,-1.81142 -22.08923,1.13976 -8.15411,11.1514 12.18935,22.66329 22.25757,12.59506 z M 3.8974359,105.4359 C -6.8549096,94.683551 1.5173528,85.333332 21.897436,85.333332 c 12.324787,0 14.438726,-0.336161 16.769231,-2.666666 5.777655,-5.777655 2.047862,-16 -5.837868,-16 -12.344487,0 -18.154555,-11.489633 -10.271504,-20.312297 l 3.890628,-4.35437 h 22.218744 22.218745 l 3.890628,4.35437 c 8.018098,8.97381 1.709853,20.312297 -11.300887,20.312297 -8.028964,0 -11.943666,10.198153 -6.141819,16 4.086607,4.086606 49.246726,4.086606 53.333336,0 4.75685,-4.756851 2.03275,-16 -3.87664,-16 -16.785785,0 -19.841822,-19.799659 -3.71854,-24.091895 C 120.13716,38.031661 116.90287,24 98.790027,24 78.378774,24 69.375142,14.41973 79.897437,3.897436 L 83.794873,0 H 120 156.20514 l 3.89742,3.897436 c 9.89598,9.895966 2.18775,18.816662 -17.25489,19.969022 -14.69573,0.871011 -16.12291,1.626484 -16.16058,8.55453 -0.05,9.198098 -1.34664,8.911537 40.35982,8.919781 21.66903,0.0043 39.71404,0.589086 42.55911,1.37926 13.32732,3.701442 13.7183,19.090158 0.58014,22.833905 -18.87777,5.379261 -13.42177,19.779398 7.49414,19.779398 16.9637,0 25.16632,7.382145 18.90021,17.009718 -4.45096,6.83868 -4.77125,6.90275 -34.73203,6.94788 l -28.1515,0.0424 -3.46807,-3.46806 c -8.11003,-8.110033 -3.43687,-20.531938 7.72419,-20.531938 7.30376,0 11.19284,-9.200328 6.63797,-15.703325 -2.94117,-4.199111 -51.97461,-4.661145 -55.71775,-0.52502 -6.11598,6.758079 -1.01817,16.228345 8.73566,16.228345 11.9382,0 17.72948,12.640173 9.25888,20.208648 l -4.24326,3.79135 H 75.209734 7.7948718 Z"
     id="path3715"
     inkscape:connector-curvature="0" />
</svg>
